<?xml version="1.0" encoding="UTF-8"?>
<!DOCTYPE svg PUBLIC "-//W3C//DTD SVG 1.1//EN" "http://www.w3.org/Graphics/SVG/1.1/DTD/svg11.dtd">
<!-- Creator: CorelDRAW -->
<svg xmlns="http://www.w3.org/2000/svg" xml:space="preserve" width="1.70666in" height="1.70666in" version="1.1" style="shape-rendering:geometricPrecision; text-rendering:geometricPrecision; image-rendering:optimizeQuality; fill-rule:evenodd; clip-rule:evenodd"
viewBox="0 0 1707 1707"
 xmlns:xlink="http://www.w3.org/1999/xlink">
 <defs>
  <style type="text/css">
   <![CDATA[
    .fil0 {fill:#333333}
    .fil2 {fill:#F1F1F1}
    .fil1 {fill:#FF1100}
   ]]>
  </style>
 </defs>
 <g id="Layer_x0020_1">
  <metadata id="CorelCorpID_0Corel-Layer"/>
  <path class="fil0" d="M1191 1340c-6,0 -12,-2 -17,-6l-321 -321 -321 321c-9,9 -24,9 -33,0l-126 -127c-9,-9 -9,-24 0,-33l321 -321 -321 -321c-9,-9 -9,-24 0,-33l126 -126c9,-9 24,-9 33,0l321 321 321 -321c9,-9 24,-9 33,0l127 126c9,9 9,24 0,33l-321 321 321 321c9,9 9,24 0,33l-127 127c-4,4 -10,6 -16,6zm-338 367c-471,0 -853,-382 -853,-854 0,-471 382,-853 853,-853 228,0 443,89 604,250 333,333 333,873 0,1207 -161,161 -376,250 -604,250zm0 -1660c-444,0 -806,362 -806,806 0,445 362,807 806,807 445,0 807,-362 807,-807 0,-444 -362,-806 -807,-806zm0 909c6,0 12,3 17,7l321 321 93 -93 -321 -321c-9,-9 -9,-24 0,-33l321 -321 -93 -93 -321 321c-9,9 -24,9 -33,0l-321 -321 -93 93 321 321c9,9 9,24 0,33l-321 321 93 93 321 -321c4,-4 10,-7 16,-7z"/>
  <path class="fil1" d="M870 963l321 321 93 -93 -321 -321c-9,-9 -9,-24 0,-33l321 -321 -93 -93 -321 321c-9,9 -24,9 -33,0l-321 -321 -93 93 321 321c9,9 9,24 0,33l-321 321 93 93 321 -321c4,-4 10,-7 16,-7 6,0 12,3 17,7z"/>
  <path class="fil2" d="M853 694l321 -321c9,-9 24,-9 33,0l127 126c9,9 9,24 0,33l-321 321 321 321c9,9 9,24 0,33l-127 127c-4,4 -10,6 -16,6 -6,0 -12,-2 -17,-6l-321 -321 -321 321c-9,9 -24,9 -33,0l-126 -127c-9,-9 -9,-24 0,-33l321 -321 -321 -321c-9,-9 -9,-24 0,-33l126 -126c9,-9 24,-9 33,0l321 321zm807 159c0,-444 -362,-806 -807,-806 -444,0 -806,362 -806,806 0,445 362,807 806,807 445,0 807,-362 807,-807z"/>
 </g>
</svg>
